<svg width="21" height="20" viewBox="0 0 21 20" fill="none" xmlns="http://www.w3.org/2000/svg">
<path d="M17.1813 8.30012C16.8719 5.14075 14.3469 2.57825 11.1937 2.23137C7.09375 1.77825 3.625 4.97512 3.625 8.98137C3.625 9.10012 3.625 9.21575 3.63437 9.33137C3.71562 10.9126 4.41875 12.4001 5.51563 13.5407L9.5875 17.7814C10.0406 18.2532 10.8 18.2532 11.2531 17.7814L15.3281 13.5376C16.3938 12.4282 17.0937 10.9939 17.2 9.45637C17.225 9.07825 17.2219 8.69075 17.1844 8.297L17.1813 8.30012ZM10.4188 10.1626C9.38438 10.1626 8.54375 9.322 8.54375 8.28762C8.54375 7.25325 9.38438 6.41262 10.4188 6.41262C11.4531 6.41262 12.2937 7.25325 12.2937 8.28762C12.2937 9.322 11.4531 10.1626 10.4188 10.1626Z" fill="#A6A5A4"/>
</svg>
