<svg width="345" height="423" viewBox="0 0 345 423" fill="none" xmlns="http://www.w3.org/2000/svg">
<g clip-path="url(#clip0_30_713)">
<rect width="345" height="423" fill="#333333"/>
<g clip-path="url(#clip1_30_713)">
<path d="M162.904 160.561L166.035 166.039L-17.0871 268.556L-21 261.513L162.904 160.561Z" fill="#312E2E"/>
<path d="M157.904 156.561L161.035 162.039L-22.0871 264.555L-26 257.512L157.904 156.561Z" fill="#F4DBC7"/>
<path d="M142.166 206.111L113.767 158.163C108.171 148.717 111.294 136.533 120.739 130.937L126.961 128.096C131.695 125.937 136.305 123.534 140.781 120.881L175.159 100.519C179.636 97.8657 183.963 94.978 188.127 91.8712L193.605 87.7784C203.05 82.183 215.235 85.3054 220.83 94.7511L249.23 142.699C254.825 152.145 251.703 164.329 242.257 169.925L236.036 172.766C231.301 174.926 226.692 177.328 222.215 179.981L187.837 200.343C183.361 202.996 179.033 205.884 174.87 208.991L169.392 213.084C159.946 218.679 147.762 215.557 142.166 206.111Z" fill="#312E2E"/>
<path d="M137.166 200.11L108.767 152.162C103.171 142.717 106.294 130.532 115.739 124.937L121.961 122.096C126.695 119.936 131.305 117.534 135.781 114.881L170.159 94.5181C174.636 91.8652 178.963 88.9775 183.127 85.8707L188.605 81.7779C198.05 76.1825 210.235 79.3049 215.83 88.7506L244.23 136.699C249.825 146.144 246.703 158.329 237.257 163.924L231.036 166.765C226.301 168.925 221.692 171.328 217.215 173.98L182.837 194.343C178.361 196.996 174.033 199.884 169.87 202.99L164.392 207.083C154.946 212.679 142.762 209.556 137.166 200.11Z" fill="#947A7A"/>
</g>
<g clip-path="url(#clip2_30_713)">
<path d="M169.612 366.088C145.784 366.088 129.996 352.346 129.996 331.686C129.996 313.461 138.572 308.15 138.572 296.796C138.572 294.214 138.183 291.728 138.183 290.072C138.183 287.294 139.888 285.54 142.422 285.54C146.661 285.54 151.242 288.756 154.214 294.993C154.36 294.311 154.409 293.629 154.409 292.898C154.312 283.688 148.951 276.087 142.763 268.631C141.642 267.267 140.96 265.707 140.96 264.197C140.96 260.299 144.468 258.252 149.78 258.252C175.898 258.252 213.955 276.866 213.955 321.258C213.955 348.156 196.218 366.088 169.612 366.088ZM170.831 350.056C181.989 350.056 187.934 342.065 187.934 332.319C187.934 322.379 182.282 312.097 171.805 307.419C171.123 307.127 170.489 307.516 170.636 308.345C171.561 315.605 170.782 322.379 168.345 326.326C167.225 323.353 165.86 320.917 163.765 318.968C163.131 318.432 162.498 318.773 162.449 319.455C161.67 325.546 155.822 328.226 155.822 336.607C155.822 344.696 161.767 350.056 170.831 350.056Z" fill="#312E2E"/>
<ellipse cx="172.236" cy="321.074" rx="20.2363" ry="28.2754" fill="#FFB35A"/>
<path d="M169.612 358.326C145.784 358.326 129.996 344.585 129.996 323.924C129.996 305.7 138.572 300.388 138.572 289.034C138.572 286.452 138.183 283.967 138.183 282.31C138.183 279.532 139.888 277.778 142.422 277.778C146.661 277.778 151.242 280.994 154.214 287.231C154.36 286.549 154.409 285.867 154.409 285.136C154.312 275.926 148.951 268.325 142.763 260.869C141.642 259.505 140.96 257.946 140.96 256.435C140.96 252.537 144.468 250.49 149.78 250.49C175.898 250.49 213.955 269.105 213.955 313.496C213.955 340.394 196.218 358.326 169.612 358.326ZM170.831 342.295C181.989 342.295 187.934 334.303 187.934 324.557C187.934 314.617 182.282 304.335 171.805 299.657C171.123 299.365 170.489 299.755 170.636 300.583C171.561 307.844 170.782 314.617 168.345 318.564C167.225 315.591 165.86 313.155 163.765 311.206C163.131 310.67 162.498 311.011 162.449 311.693C161.67 317.784 155.822 320.464 155.822 328.845C155.822 336.934 161.767 342.295 170.831 342.295Z" fill="#FF885F"/>
</g>
</g>
<defs>
<clipPath id="clip0_30_713">
<rect width="345" height="423" rx="16" fill="white"/>
</clipPath>
<clipPath id="clip1_30_713">
<rect width="273" height="185.555" fill="white" transform="translate(-16 79)"/>
</clipPath>
<clipPath id="clip2_30_713">
<rect width="102" height="126.762" fill="white" transform="translate(121 249)"/>
</clipPath>
</defs>
</svg>
