<svg width="345" height="423" viewBox="0 0 345 423" fill="none" xmlns="http://www.w3.org/2000/svg">
<g clip-path="url(#clip0_30_683)">
<rect width="345" height="423" fill="#333333"/>
<g clip-path="url(#clip1_30_683)">
<path d="M162.904 210.561L166.035 216.039L-17.0871 318.556L-21 311.513L162.904 210.561Z" fill="#312E2E"/>
<path d="M157.904 206.561L161.035 212.039L-22.0871 314.555L-26 307.512L157.904 206.561Z" fill="#F4DBC7"/>
<path d="M142.166 256.111L113.767 208.163C108.171 198.717 111.294 186.533 120.739 180.937L126.961 178.096C131.695 175.937 136.305 173.534 140.781 170.881L175.159 150.519C179.636 147.866 183.963 144.978 188.127 141.871L193.605 137.778C203.05 132.183 215.235 135.305 220.83 144.751L249.23 192.699C254.825 202.145 251.703 214.329 242.257 219.925L236.036 222.766C231.301 224.926 226.692 227.328 222.215 229.981L187.837 250.343C183.361 252.996 179.033 255.884 174.87 258.991L169.392 263.084C159.946 268.679 147.762 265.557 142.166 256.111Z" fill="#312E2E"/>
<path d="M137.166 250.11L108.767 202.162C103.171 192.717 106.294 180.532 115.739 174.937L121.961 172.096C126.695 169.936 131.305 167.534 135.781 164.881L170.159 144.518C174.636 141.865 178.963 138.978 183.127 135.871L188.605 131.778C198.05 126.182 210.235 129.305 215.83 138.751L244.23 186.699C249.825 196.144 246.703 208.329 237.257 213.924L231.036 216.765C226.301 218.925 221.692 221.328 217.215 223.98L182.837 244.343C178.361 246.996 174.033 249.884 169.87 252.99L164.392 257.083C154.946 262.679 142.762 259.556 137.166 250.11Z" fill="white"/>
</g>
</g>
<defs>
<clipPath id="clip0_30_683">
<rect width="345" height="423" rx="16" fill="white"/>
</clipPath>
<clipPath id="clip1_30_683">
<rect width="273" height="185.555" fill="white" transform="translate(-16 129)"/>
</clipPath>
</defs>
</svg>
