<svg width="345" height="423" viewBox="0 0 345 423" fill="none" xmlns="http://www.w3.org/2000/svg">
<g clip-path="url(#clip0_30_556)">
<rect width="345" height="423" fill="#333333"/>
<ellipse opacity="0.6" cx="175.5" cy="372" rx="91.5" ry="28" fill="white" fill-opacity="0.2"/>
<path d="M168.649 335.527C129.244 335.527 103.136 312.803 103.136 278.636C103.136 248.498 117.318 239.715 117.318 220.939C117.318 216.668 116.674 212.559 116.674 209.819C116.674 205.226 119.494 202.325 123.684 202.325C130.695 202.325 138.27 207.643 143.185 217.958C143.427 216.829 143.507 215.701 143.507 214.492C143.346 199.262 134.482 186.692 124.248 174.362C122.395 172.106 121.267 169.528 121.267 167.029C121.267 160.583 127.069 157.198 135.852 157.198C179.044 157.198 241.979 187.981 241.979 261.391C241.979 305.873 212.647 335.527 168.649 335.527ZM170.664 309.016C189.117 309.016 198.948 295.8 198.948 279.684C198.948 263.245 189.601 246.242 172.275 238.506C171.147 238.023 170.1 238.667 170.341 240.037C171.872 252.044 170.583 263.245 166.554 269.772C164.701 264.856 162.444 260.827 158.979 257.604C157.932 256.718 156.884 257.282 156.804 258.41C155.514 268.483 145.844 272.915 145.844 286.775C145.844 300.151 155.675 309.016 170.664 309.016Z" fill="#312E2E"/>
<ellipse cx="173.406" cy="261.19" rx="33.465" ry="46.7592" fill="#FFB35A"/>
<path d="M168.649 322.691C129.244 322.691 103.135 299.967 103.135 265.8C103.135 235.662 117.318 226.879 117.318 208.103C117.318 203.832 116.673 199.723 116.673 196.983C116.673 192.39 119.493 189.489 123.684 189.489C130.694 189.489 138.269 194.807 143.185 205.122C143.426 203.993 143.507 202.865 143.507 201.657C143.346 186.426 134.482 173.856 124.248 161.527C122.394 159.27 121.266 156.692 121.266 154.194C121.266 147.747 127.068 144.362 135.852 144.362C179.044 144.362 241.979 175.145 241.979 248.555C241.979 293.037 212.647 322.691 168.649 322.691ZM170.663 296.18C189.117 296.18 198.948 282.964 198.948 266.848C198.948 250.409 189.6 233.406 172.275 225.67C171.147 225.187 170.099 225.831 170.341 227.201C171.872 239.208 170.583 250.409 166.553 256.936C164.7 252.02 162.444 247.991 158.979 244.768C157.931 243.882 156.884 244.446 156.803 245.574C155.514 255.647 145.844 260.079 145.844 273.939C145.844 287.316 155.675 296.18 170.663 296.18Z" fill="#FF885F"/>
<ellipse opacity="0.4" cx="175.5" cy="372" rx="63.5" ry="20" fill="white"/>
<ellipse opacity="0.6" cx="175.5" cy="371" rx="35.5" ry="10" fill="#E8EBE9"/>
<path d="M190.707 97.4101C189.841 88.8798 182.771 81.9611 173.942 81.0245C162.462 79.8011 152.75 88.4326 152.75 99.2495C152.75 99.5701 152.75 99.8823 152.776 100.195C153.004 104.464 154.973 108.48 158.044 111.56L169.445 123.01C170.714 124.284 172.84 124.284 174.109 123.01L185.519 111.551C188.502 108.556 190.462 104.683 190.76 100.532C190.83 99.5111 190.821 98.4648 190.716 97.4017L190.707 97.4101ZM171.772 102.439C168.876 102.439 166.522 100.169 166.522 97.3764C166.522 94.5836 168.876 92.3139 171.772 92.3139C174.669 92.3139 177.022 94.5836 177.022 97.3764C177.022 100.169 174.669 102.439 171.772 102.439Z" fill="#D0D2D1"/>
</g>
<defs>
<clipPath id="clip0_30_556">
<rect width="345" height="423" rx="16" fill="white"/>
</clipPath>
</defs>
</svg>
