<svg width="193" height="80" viewBox="0 0 193 80" fill="none" xmlns="http://www.w3.org/2000/svg">
<g clip-path="url(#clip0_1_116)">
<path d="M96.4076 79.9998C86.0533 79.9998 77.9785 71.0905 79.0461 60.848L83.2761 20.3251C83.9744 13.6351 89.6412 8.5498 96.4076 8.5498C103.174 8.5498 108.841 13.6351 109.539 20.3251L113.769 60.848C114.837 71.0905 106.762 79.9998 96.4076 79.9998Z" fill="#D1A395"/>
<path d="M96.8732 75.3537C102.8 75.3537 107.605 71.3041 107.605 66.3087C107.605 61.3133 102.8 57.2637 96.8732 57.2637C90.9463 57.2637 86.1416 61.3133 86.1416 66.3087C86.1416 71.3041 90.9463 75.3537 96.8732 75.3537Z" fill="#C69185"/>
<path d="M18.3077 55.6434C10.3373 49.0652 6.58885 39.4853 13.9814 32.2844L43.2544 3.79225C54.8368 -6.92923 71.9335 7.16916 63.4655 20.4772L40.6939 54.3421C34.9389 62.9001 26.2621 62.2216 18.2997 55.6434H18.3077Z" fill="#D1A395"/>
<path d="M32.1621 55.0828C34.1641 52.6845 32.0902 47.6877 27.5301 43.9223C22.97 40.1568 17.6503 39.0486 15.6483 41.4469C13.6464 43.8453 15.7202 48.842 20.2803 52.6075C24.8405 56.3729 30.1601 57.4812 32.1621 55.0828Z" fill="#C69185"/>
<path d="M174.693 55.6434C182.655 49.0652 186.411 39.4853 179.011 32.2844L149.738 3.79225C138.155 -6.92923 121.059 7.16916 129.527 20.4772L152.298 54.3421C158.053 62.9001 166.73 62.2216 174.693 55.6434Z" fill="#D1A395"/>
<path d="M172.715 52.587C177.275 48.8215 179.349 43.8248 177.347 41.4264C175.345 39.0281 170.025 40.1363 165.465 43.9018C160.905 47.6672 158.831 52.664 160.833 55.0623C162.835 57.4607 168.155 56.3524 172.715 52.587Z" fill="#C69185"/>
</g>
<defs>
<clipPath id="clip0_1_116">
<rect width="193" height="80" fill="white"/>
</clipPath>
</defs>
</svg>
