<svg width="127" height="141" viewBox="0 0 127 141" fill="none" xmlns="http://www.w3.org/2000/svg">
<g clip-path="url(#clip0_54_27)">
<path d="M93.8997 36.9351C92.492 22.8759 81.0033 11.4728 66.6566 9.92916C48.0016 7.91276 32.2188 22.1389 32.2188 39.9667C32.2188 40.4951 32.2188 41.0096 32.2614 41.5242C32.6311 48.5607 35.8303 55.1801 40.8211 60.2559L59.3481 79.1267C61.4098 81.2265 64.865 81.2265 66.9267 79.1267L85.468 60.242C90.3166 55.3053 93.5016 48.9223 93.985 42.0804C94.0987 40.3978 94.0845 38.6734 93.9139 36.9212L93.8997 36.9351ZM63.1303 45.2232C58.4239 45.2232 54.5991 41.4824 54.5991 36.8795C54.5991 32.2765 58.4239 28.5357 63.1303 28.5357C67.8367 28.5357 71.6616 32.2765 71.6616 36.8795C71.6616 41.4824 67.8367 45.2232 63.1303 45.2232Z" fill="#6F6F6F"/>
<ellipse cx="63.5" cy="121" rx="63.5" ry="20" fill="#D8D8D8"/>
<ellipse cx="63.5" cy="121" rx="35.5" ry="10" fill="#6F6F6F"/>
</g>
<defs>
<clipPath id="clip0_54_27">
<rect width="127" height="141" fill="white"/>
</clipPath>
</defs>
</svg>
