<svg width="393" height="212" viewBox="0 0 393 212" fill="none" xmlns="http://www.w3.org/2000/svg">
<g clip-path="url(#clip0_30_655)">
<path d="M171 99.1099L175 106.11L-59 237.11L-64 228.11L171 99.1099Z" fill="#F4DBC7"/>
<path d="M144.5 154.76L108.21 93.4898C101.06 81.4198 105.05 65.8498 117.12 58.6998L125.07 55.0698C131.12 52.3098 137.01 49.2398 142.73 45.8498L186.66 19.8298C192.38 16.4398 197.91 12.7498 203.23 8.77981L210.23 3.54981C222.3 -3.60019 237.87 0.38981 245.02 12.4598L281.31 73.7298C288.46 85.7998 284.47 101.37 272.4 108.52L264.45 112.15C258.4 114.91 252.51 117.98 246.79 121.37L202.86 147.39C197.14 150.78 191.61 154.47 186.29 158.44L179.29 163.67C167.22 170.82 151.65 166.83 144.5 154.76Z" fill="#947A7A"/>
</g>
<defs>
<clipPath id="clip0_30_655">
<rect width="393" height="212" fill="white"/>
</clipPath>
</defs>
</svg>
