<svg width="393" height="852" viewBox="0 0 393 852" fill="none" xmlns="http://www.w3.org/2000/svg">
<g clip-path="url(#clip0_78_86)">
<rect width="393" height="852" fill="#FFFCF8"/>
<rect width="139" height="5" rx="2.5" transform="matrix(-1 0 0 1 266 839)" fill="#8F8779"/>
<path d="M135.129 276.072V321H124.185V294.056L114.137 321H105.305L95.1933 293.992V321H84.2493V276.072H97.1772L109.785 307.176L122.265 276.072H135.129ZM160.023 321.512C156.397 321.512 153.133 320.765 150.231 319.272C147.373 317.736 145.133 315.624 143.511 312.936C141.89 310.248 141.079 307.197 141.079 303.784C141.079 300.371 141.89 297.32 143.511 294.632C145.133 291.944 147.373 289.853 150.231 288.36C153.133 286.824 156.397 286.056 160.023 286.056C163.65 286.056 166.893 286.824 169.751 288.36C172.61 289.853 174.85 291.944 176.471 294.632C178.093 297.32 178.903 300.371 178.903 303.784C178.903 307.197 178.093 310.248 176.471 312.936C174.85 315.624 172.61 317.736 169.751 319.272C166.893 320.765 163.65 321.512 160.023 321.512ZM160.023 313.32C162.583 313.32 164.674 312.467 166.295 310.76C167.959 309.011 168.791 306.685 168.791 303.784C168.791 300.883 167.959 298.579 166.295 296.872C164.674 295.123 162.583 294.248 160.023 294.248C157.463 294.248 155.351 295.123 153.687 296.872C152.023 298.579 151.191 300.883 151.191 303.784C151.191 306.685 152.023 309.011 153.687 310.76C155.351 312.467 157.463 313.32 160.023 313.32ZM220.649 273.512V321H211.113V317.032C208.638 320.019 205.054 321.512 200.361 321.512C197.118 321.512 194.174 320.787 191.529 319.336C188.926 317.885 186.878 315.816 185.385 313.128C183.891 310.44 183.145 307.325 183.145 303.784C183.145 300.243 183.891 297.128 185.385 294.44C186.878 291.752 188.926 289.683 191.529 288.232C194.174 286.781 197.118 286.056 200.361 286.056C204.755 286.056 208.19 287.443 210.665 290.216V273.512H220.649ZM202.089 313.32C204.606 313.32 206.697 312.467 208.361 310.76C210.025 309.011 210.857 306.685 210.857 303.784C210.857 300.883 210.025 298.579 208.361 296.872C206.697 295.123 204.606 294.248 202.089 294.248C199.529 294.248 197.417 295.123 195.753 296.872C194.089 298.579 193.257 300.883 193.257 303.784C193.257 306.685 194.089 309.011 195.753 310.76C197.417 312.467 199.529 313.32 202.089 313.32ZM264.833 286.568V321H255.297V317.032C252.823 320.019 249.239 321.512 244.545 321.512C241.303 321.512 238.359 320.787 235.713 319.336C233.111 317.885 231.063 315.816 229.569 313.128C228.076 310.44 227.329 307.325 227.329 303.784C227.329 300.243 228.076 297.128 229.569 294.44C231.063 291.752 233.111 289.683 235.713 288.232C238.359 286.781 241.303 286.056 244.545 286.056C248.94 286.056 252.375 287.443 254.849 290.216V286.568H264.833ZM246.273 313.32C248.791 313.32 250.881 312.467 252.545 310.76C254.209 309.011 255.041 306.685 255.041 303.784C255.041 300.883 254.209 298.579 252.545 296.872C250.881 295.123 248.791 294.248 246.273 294.248C243.713 294.248 241.601 295.123 239.937 296.872C238.273 298.579 237.441 300.883 237.441 303.784C237.441 306.685 238.273 309.011 239.937 310.76C241.601 312.467 243.713 313.32 246.273 313.32ZM288.861 307.496L284.061 312.232V321H274.077V273.512H284.061V300.392L298.653 286.568H310.557L296.221 301.16L311.837 321H299.741L288.861 307.496Z" fill="#434343"/>
<g clip-path="url(#clip1_78_86)">
<path d="M53.536 592.041C53.7685 588.556 48.3701 586.956 45.7355 589.64C-4.39943 641.085 -45.9074 748.723 -30.8746 831.53C-15.6094 915.575 55.2666 1022 208.332 1022C361.397 1022 442.502 889.091 436.716 790.539C431.757 706.235 392.883 630.734 381.751 610.678C380.434 608.303 376.637 607.812 374.544 609.774C365.478 618.266 343.162 635.251 320.845 622.293C286.647 602.417 319.476 566.641 284.58 532.414C282.101 529.988 277.322 531.252 276.935 534.401C275.308 548.03 268.075 573.198 236.848 567.029C186.971 557.168 200.299 499.142 206.705 478.569C207.635 475.601 203.993 473.097 200.661 474.387C177.647 483.344 116.276 512.719 120.977 569.429C124.18 608.096 103.593 629.521 80.4245 622.319C57.2555 615.117 52.9419 601.979 53.5619 592.092L53.536 592.041Z" fill="#FA7855"/>
<path d="M345.848 810.957C315.447 714.108 264.304 674.486 247.877 663.851C245.32 662.199 241.574 663.077 240.49 665.606C236.357 675.286 226.335 695.807 210.76 694.361C189.27 692.374 183.536 665.89 183.794 647.228C183.846 643.614 178.551 641.833 175.58 644.44C117.645 695.316 85.7195 751.872 70.7643 814.261C46.4329 921.176 141.899 977.809 187.048 996.755C199.602 1002.02 214.453 1001.81 226.852 996.316C271.666 976.337 378.884 916.194 345.848 810.931V810.957Z" fill="#FF885F"/>
<path d="M196.166 756.776C195.624 753.395 190.38 752.311 188.004 755.073C169.2 776.859 119.453 842.861 148.95 902.566C165.377 935.812 188.288 956.54 201.125 966.322C206.395 970.349 214.531 970.117 219.413 965.78C241.574 946.034 296.979 887.878 272.389 818.004C270.813 813.512 264.356 811.654 259.784 814.416C252.087 819.036 240.644 824.121 231.036 820.972C213.834 815.345 204.587 808.066 196.166 756.776Z" fill="#FFB35A"/>
</g>
</g>
<defs>
<clipPath id="clip0_78_86">
<rect width="393" height="852" fill="white"/>
</clipPath>
<clipPath id="clip1_78_86">
<rect width="471" height="548" fill="white" transform="translate(-34 474)"/>
</clipPath>
</defs>
</svg>
