<svg width="393" height="852" viewBox="0 0 393 852" fill="none" xmlns="http://www.w3.org/2000/svg">
<g clip-path="url(#clip0_63_185)">
<rect width="393" height="852" fill="#FFFCF8"/>
<path d="M56.7666 23.063C57.4085 23.063 58.0173 23.182 58.5928 23.4199C59.1683 23.6523 59.6774 24.0176 60.1201 24.5156C60.5684 25.0081 60.9198 25.6418 61.1743 26.4165C61.4289 27.1857 61.5562 28.1126 61.5562 29.1973V29.2139C61.5562 30.5586 61.3625 31.7096 60.9751 32.667C60.5877 33.6243 60.0316 34.3604 59.3066 34.875C58.5872 35.3841 57.7267 35.6387 56.7251 35.6387C55.9891 35.6387 55.325 35.5059 54.7329 35.2402C54.1463 34.9691 53.6593 34.5983 53.272 34.1279C52.8901 33.652 52.6328 33.1097 52.5 32.501L52.4834 32.4097H54.5835L54.6167 32.4927C54.7218 32.7694 54.8713 33.0129 55.0649 33.2231C55.2642 33.4334 55.5021 33.5967 55.7788 33.7129C56.061 33.8236 56.3765 33.8789 56.7251 33.8789C57.356 33.8789 57.8706 33.6935 58.269 33.3228C58.673 32.9465 58.9746 32.4456 59.1738 31.8203C59.3786 31.1895 59.4948 30.4922 59.5225 29.7285C59.528 29.6455 59.5308 29.5653 59.5308 29.4878C59.5308 29.4048 59.5308 29.3245 59.5308 29.2471L59.1572 27.2466C59.1572 26.7928 59.0521 26.3805 58.8418 26.0098C58.6315 25.639 58.3465 25.3457 57.9868 25.1299C57.6326 24.9141 57.2314 24.8062 56.7832 24.8062C56.3516 24.8062 55.9559 24.9113 55.5962 25.1216C55.2365 25.3319 54.9487 25.6196 54.7329 25.9849C54.5171 26.3446 54.4092 26.7485 54.4092 27.1968V27.2134C54.4092 27.6782 54.5116 28.0905 54.7163 28.4502C54.9211 28.8044 55.2005 29.0838 55.5547 29.2886C55.9089 29.4933 56.3128 29.5957 56.7666 29.5957C57.2204 29.5957 57.6271 29.4961 57.9868 29.2969C58.3465 29.0977 58.6315 28.821 58.8418 28.4668C59.0521 28.1126 59.1572 27.7114 59.1572 27.2632V27.2466H59.6553V29.4546H59.3647C59.2209 29.77 59.0078 30.0633 58.7256 30.3345C58.4434 30.6056 58.0947 30.8242 57.6797 30.9902C57.2702 31.1562 56.7887 31.2393 56.2354 31.2393C55.4717 31.2393 54.7965 31.0677 54.21 30.7246C53.6234 30.3815 53.1613 29.9111 52.8237 29.3135C52.4917 28.7158 52.3257 28.0407 52.3257 27.2881V27.2715C52.3257 26.458 52.5138 25.7358 52.8901 25.105C53.272 24.4686 53.7977 23.9705 54.4673 23.6108C55.1424 23.2456 55.9089 23.063 56.7666 23.063ZM65.3247 33.7295C64.9484 33.7295 64.633 33.605 64.3784 33.356C64.1294 33.1014 64.0049 32.7915 64.0049 32.4263C64.0049 32.0555 64.1294 31.7456 64.3784 31.4966C64.633 31.242 64.9484 31.1147 65.3247 31.1147C65.7065 31.1147 66.022 31.242 66.271 31.4966C66.52 31.7456 66.6445 32.0555 66.6445 32.4263C66.6445 32.7915 66.52 33.1014 66.271 33.356C66.022 33.605 65.7065 33.7295 65.3247 33.7295ZM65.3247 27.5703C64.9484 27.5703 64.633 27.4458 64.3784 27.1968C64.1294 26.9422 64.0049 26.6323 64.0049 26.2671C64.0049 25.8963 64.1294 25.5864 64.3784 25.3374C64.633 25.0828 64.9484 24.9556 65.3247 24.9556C65.7065 24.9556 66.022 25.0828 66.271 25.3374C66.52 25.5864 66.6445 25.8963 66.6445 26.2671C66.6445 26.6323 66.52 26.9422 66.271 27.1968C66.022 27.4458 65.7065 27.5703 65.3247 27.5703ZM74.9038 35.3398V33.0405H69.0435V31.2891C69.3589 30.7523 69.6743 30.2127 69.9897 29.6704C70.3107 29.1281 70.6344 28.5885 70.9609 28.0518C71.293 27.5094 71.6222 26.9754 71.9487 26.4497C72.2808 25.9185 72.61 25.3955 72.9365 24.8809C73.2686 24.3607 73.6006 23.8543 73.9326 23.3618H76.9458V31.2725H78.5645V33.0405H76.9458V35.3398H74.9038ZM71.0356 31.3223H74.937V25.0718H74.8125C74.569 25.4481 74.3172 25.8354 74.0571 26.2339C73.8026 26.6323 73.5452 27.0391 73.2852 27.4541C73.0251 27.8691 72.7677 28.2869 72.5132 28.7075C72.2586 29.1226 72.0068 29.5404 71.7578 29.9609C71.5088 30.376 71.2681 30.7882 71.0356 31.1978V31.3223ZM83.52 35.3398V25.4702H83.3706L80.3906 27.5703V25.5615L83.52 23.3618H85.6533V35.3398H83.52Z" fill="#8F8779"/>
<rect opacity="0.35" x="333.5" y="23.5" width="24" height="12" rx="3.8" stroke="#8F8779"/>
<path opacity="0.4" d="M359 27.7812V31.8567C359.805 31.5116 360.328 30.7086 360.328 29.819C360.328 28.9294 359.805 28.1264 359 27.7812Z" fill="#8F8779"/>
<rect x="335" y="25" width="21" height="9" rx="2.5" fill="#8F8779"/>
<path fill-rule="evenodd" clip-rule="evenodd" d="M317.271 26.104C319.758 26.1041 322.15 27.0262 323.952 28.6796C324.088 28.8073 324.305 28.8057 324.439 28.676L325.736 27.4126C325.804 27.3468 325.841 27.2577 325.841 27.165C325.84 27.0724 325.802 26.9837 325.733 26.9187C321.002 22.544 313.538 22.544 308.807 26.9187C308.739 26.9837 308.7 27.0723 308.699 27.165C308.699 27.2577 308.736 27.3468 308.804 27.4126L310.102 28.676C310.235 28.8059 310.452 28.8075 310.588 28.6796C312.391 27.0261 314.783 26.104 317.271 26.104ZM317.267 30.3243C318.624 30.3242 319.933 30.8359 320.939 31.76C321.076 31.8912 321.29 31.8883 321.423 31.7536L322.71 30.4343C322.778 30.3651 322.815 30.2712 322.814 30.1737C322.813 30.0761 322.774 29.9831 322.705 29.9153C319.641 27.0244 314.896 27.0244 311.832 29.9153C311.763 29.9831 311.724 30.0762 311.723 30.1738C311.722 30.2714 311.76 30.3652 311.827 30.4343L313.114 31.7536C313.247 31.8883 313.461 31.8912 313.597 31.76C314.603 30.8365 315.911 30.3248 317.267 30.3243ZM319.792 33.1178C319.794 33.2232 319.756 33.3247 319.689 33.3985L317.512 35.8533C317.449 35.9254 317.362 35.966 317.271 35.966C317.18 35.966 317.093 35.9254 317.029 35.8533L314.852 33.3985C314.785 33.3247 314.748 33.2231 314.75 33.1177C314.752 33.0124 314.793 32.9126 314.863 32.842C316.253 31.5281 318.289 31.5281 319.679 32.842C319.749 32.9127 319.79 33.0125 319.792 33.1178Z" fill="#8F8779"/>
<path fill-rule="evenodd" clip-rule="evenodd" d="M301.2 24.6819C301.2 24.0488 300.722 23.5356 300.133 23.5356H299.067C298.478 23.5356 298 24.0488 298 24.6819V34.6158C298 35.2489 298.478 35.7621 299.067 35.7621H300.133C300.722 35.7621 301.2 35.2489 301.2 34.6158V24.6819ZM293.766 25.9809H294.833C295.422 25.9809 295.899 26.5064 295.899 27.1547V34.5883C295.899 35.2366 295.422 35.7621 294.833 35.7621H293.766C293.177 35.7621 292.699 35.2366 292.699 34.5883V27.1547C292.699 26.5064 293.177 25.9809 293.766 25.9809ZM289.434 28.63H288.367C287.778 28.63 287.301 29.1622 287.301 29.8187V34.5734C287.301 35.2299 287.778 35.762 288.367 35.762H289.434C290.023 35.762 290.501 35.2299 290.501 34.5734V29.8187C290.501 29.1622 290.023 28.63 289.434 28.63ZM284.133 31.0753H283.067C282.478 31.0753 282 31.5999 282 32.247V34.5904C282 35.2375 282.478 35.7621 283.067 35.7621H284.133C284.722 35.7621 285.2 35.2375 285.2 34.5904V32.247C285.2 31.5999 284.722 31.0753 284.133 31.0753Z" fill="#8F8779"/>
<rect width="139" height="5" rx="2.5" transform="matrix(-1 0 0 1 266 839)" fill="#8F8779"/>
<path d="M135.129 276.072V321H124.185V294.056L114.137 321H105.305L95.1933 293.992V321H84.2493V276.072H97.1772L109.785 307.176L122.265 276.072H135.129ZM160.023 321.512C156.397 321.512 153.133 320.765 150.231 319.272C147.373 317.736 145.133 315.624 143.511 312.936C141.89 310.248 141.079 307.197 141.079 303.784C141.079 300.371 141.89 297.32 143.511 294.632C145.133 291.944 147.373 289.853 150.231 288.36C153.133 286.824 156.397 286.056 160.023 286.056C163.65 286.056 166.893 286.824 169.751 288.36C172.61 289.853 174.85 291.944 176.471 294.632C178.093 297.32 178.903 300.371 178.903 303.784C178.903 307.197 178.093 310.248 176.471 312.936C174.85 315.624 172.61 317.736 169.751 319.272C166.893 320.765 163.65 321.512 160.023 321.512ZM160.023 313.32C162.583 313.32 164.674 312.467 166.295 310.76C167.959 309.011 168.791 306.685 168.791 303.784C168.791 300.883 167.959 298.579 166.295 296.872C164.674 295.123 162.583 294.248 160.023 294.248C157.463 294.248 155.351 295.123 153.687 296.872C152.023 298.579 151.191 300.883 151.191 303.784C151.191 306.685 152.023 309.011 153.687 310.76C155.351 312.467 157.463 313.32 160.023 313.32ZM220.649 273.512V321H211.113V317.032C208.638 320.019 205.054 321.512 200.361 321.512C197.118 321.512 194.174 320.787 191.529 319.336C188.926 317.885 186.878 315.816 185.385 313.128C183.891 310.44 183.145 307.325 183.145 303.784C183.145 300.243 183.891 297.128 185.385 294.44C186.878 291.752 188.926 289.683 191.529 288.232C194.174 286.781 197.118 286.056 200.361 286.056C204.755 286.056 208.19 287.443 210.665 290.216V273.512H220.649ZM202.089 313.32C204.606 313.32 206.697 312.467 208.361 310.76C210.025 309.011 210.857 306.685 210.857 303.784C210.857 300.883 210.025 298.579 208.361 296.872C206.697 295.123 204.606 294.248 202.089 294.248C199.529 294.248 197.417 295.123 195.753 296.872C194.089 298.579 193.257 300.883 193.257 303.784C193.257 306.685 194.089 309.011 195.753 310.76C197.417 312.467 199.529 313.32 202.089 313.32ZM264.833 286.568V321H255.297V317.032C252.823 320.019 249.239 321.512 244.545 321.512C241.303 321.512 238.359 320.787 235.713 319.336C233.111 317.885 231.063 315.816 229.569 313.128C228.076 310.44 227.329 307.325 227.329 303.784C227.329 300.243 228.076 297.128 229.569 294.44C231.063 291.752 233.111 289.683 235.713 288.232C238.359 286.781 241.303 286.056 244.545 286.056C248.94 286.056 252.375 287.443 254.849 290.216V286.568H264.833ZM246.273 313.32C248.791 313.32 250.881 312.467 252.545 310.76C254.209 309.011 255.041 306.685 255.041 303.784C255.041 300.883 254.209 298.579 252.545 296.872C250.881 295.123 248.791 294.248 246.273 294.248C243.713 294.248 241.601 295.123 239.937 296.872C238.273 298.579 237.441 300.883 237.441 303.784C237.441 306.685 238.273 309.011 239.937 310.76C241.601 312.467 243.713 313.32 246.273 313.32ZM288.861 307.496L284.061 312.232V321H274.077V273.512H284.061V300.392L298.653 286.568H310.557L296.221 301.16L311.837 321H299.741L288.861 307.496Z" fill="#434343"/>
<g clip-path="url(#clip1_63_185)">
<path d="M53.5364 592.041C53.7689 588.556 48.3706 586.956 45.736 589.64C-4.399 641.085 -45.9069 748.723 -30.8742 831.53C-15.609 915.575 55.267 1022 208.332 1022C361.398 1022 442.502 889.091 436.716 790.539C431.757 706.235 392.884 630.734 381.751 610.678C380.434 608.303 376.637 607.812 374.545 609.774C365.479 618.266 343.162 635.251 320.845 622.293C286.647 602.417 319.476 566.641 284.581 532.414C282.101 529.988 277.323 531.252 276.935 534.401C275.308 548.03 268.076 573.198 236.848 567.029C186.971 557.168 200.299 499.142 206.705 478.569C207.635 475.601 203.993 473.097 200.661 474.387C177.647 483.344 116.276 512.719 120.977 569.429C124.18 608.096 103.594 629.521 80.4249 622.319C57.2559 615.117 52.9424 601.979 53.5623 592.092L53.5364 592.041Z" fill="#FA7855"/>
<path d="M345.848 810.957C315.447 714.108 264.305 674.486 247.877 663.851C245.32 662.199 241.575 663.077 240.49 665.606C236.357 675.286 226.335 695.807 210.76 694.361C189.27 692.374 183.536 665.89 183.794 647.228C183.846 643.614 178.551 641.833 175.58 644.44C117.645 695.316 85.7198 751.872 70.7646 814.261C46.4332 921.176 141.899 977.809 187.049 996.755C199.602 1002.02 214.454 1001.81 226.852 996.316C271.666 976.337 378.884 916.194 345.848 810.931V810.957Z" fill="#FF885F"/>
<path d="M196.166 756.776C195.623 753.395 190.38 752.311 188.004 755.073C169.2 776.859 119.452 842.861 148.95 902.566C165.377 935.812 188.288 956.54 201.125 966.322C206.394 970.349 214.531 970.117 219.412 965.78C241.574 946.034 296.978 887.878 272.389 818.004C270.813 813.512 264.356 811.654 259.784 814.416C252.087 819.036 240.644 824.121 231.036 820.972C213.833 815.345 204.586 808.066 196.166 756.776Z" fill="#FFB35A"/>
</g>
</g>
<defs>
<clipPath id="clip0_63_185">
<rect width="393" height="852" fill="white"/>
</clipPath>
<clipPath id="clip1_63_185">
<rect width="471" height="548" fill="white" transform="translate(-34 474)"/>
</clipPath>
</defs>
</svg>
